<?xml version="1.0" encoding="UTF-8"?>
<svg id="Layer_1" data-name="Layer 1" xmlns="http://www.w3.org/2000/svg" version="1.1" viewBox="0 0 400.3 66.3">
  <defs>
    <style>
      .cls-1 {
        fill: #fff;
        stroke-width: 0px;
      }
    </style>
  </defs>
  <path class="cls-1" d="M235.2.4c-.2,0-.7,0-1.2,0-4.2.3-8.4,1.4-11.4,3.1-4.9,2.7-7.9,6.8-8.6,12.1-.1.9-.2,3,0,4.1.6,6.3,4.1,10.5,11.1,13.4,2.7,1.1,5.1,1.8,11.8,3.5,5.6,1.4,8,2.1,10.4,3.3,1.6.8,2.8,1.6,3.8,2.7,1.6,1.7,2.4,3.7,2.4,6.3,0,4.9-3.1,8.6-8.8,10.3-1.3.4-2.9.7-4.7.9-1.4.2-5.9.2-7.3,0-4.2-.5-7.8-1.5-11.3-3.3-2.4-1.2-4.2-2.4-6-4l-.5-.4-.5,1c-.9,1.8-2.1,4.1-2.1,4.2s.3.3.7.7c4.5,4,11.4,6.7,19.5,7.5,1.4.1,5.9.2,7.3,0,7-.6,12.1-2.6,15.7-6.1,2.5-2.5,4.1-5.4,4.6-9,.2-1,.2-3.9,0-5-.4-2.5-1.2-4.6-2.5-6.3-2.2-2.9-5.6-5.1-10.9-6.9-1.9-.6-3.6-1.1-8.4-2.3-4.5-1.1-6.6-1.7-8.1-2.2-3.7-1.3-6.2-2.7-7.7-4.5-1.3-1.6-1.9-3.2-2-5.4-.1-2.9.8-5.5,2.8-7.5,1.9-1.9,4.3-3.2,7.7-4,3.1-.7,7.5-.8,11.1-.3,2.4.4,4.8,1,7.2,2,1.2.5,3.8,1.7,4.9,2.4.5.3.9.5,1,.5,0,0,2.3-5.3,2.3-5.3s-1.2-.8-2-1.3c-4-2.2-8.9-3.7-14.3-4.3-.9,0-5.3-.2-6-.1ZM263.6.9s5.8,9.5,12.9,21.1l12.9,21.1v22.3h6.8v-22.3l12.8-21c7.1-11.5,12.9-21.1,12.9-21.1,0-.1-.1-.1-3.4-.1h-3.4s-11,18.1-11,18.1c-6.1,9.9-11.1,18.1-11.1,18.1s-5-8.1-11.1-18.1l-11-18.1h-3.7c-2,0-3.7,0-3.7,0ZM331.1,33.2v32.3h6.6v-25.6s0-25.7,0-25.7l12.6,21.5c7,11.8,12.7,21.5,12.7,21.6.1.1,3.1.1,3.3,0,0,0,5.8-9.8,12.7-21.7l12.6-21.6v25.8s0,25.8,0,25.8h6.6V.9h-2.8s-2.8,0-2.8,0l-13.9,23.9c-9.1,15.7-13.9,23.9-13.9,23.8,0,0-6.3-10.8-14-23.9l-14-23.8h-2.8s-2.8,0-2.8,0v32.3ZM2,33.7v32.2h14.9v-23.4h29.8v-12h-29.8V13.4h33.7V1.5H2v32.2ZM60.8,33.7v32.2h47.1v-12.2h-32.3V1.5h-14.9v32.2ZM116.3,33.7v32.2h14.9V1.5h-14.9v32.2ZM146.5,33.7v32.2h14.9v-17.7h7.7c8.1,0,8.5,0,10.8-.4,5.9-.8,10.8-2.7,14.6-5.7.7-.6,2.5-2.4,3.1-3.1.2-.3.7-1,1-1.4,1.9-2.8,2.9-5.6,3.4-9.4.1-1,.2-4.3.1-5.4-.3-3.1-1-5.7-2.2-8.1-.6-1.3-1.2-2.2-2-3.3-4.3-5.7-11.5-9-21-9.6-.7,0-6.6,0-15.8,0h-14.7v32.2ZM175.6,13.7c3.8.3,6.6,1.4,8.5,3.3,1.4,1.3,2.4,3.1,2.8,5.2.3,1.7.3,3.7,0,5.4-.9,4.3-4.1,7.2-9.2,8-1.8.3-1.8.3-9.2.3h-7.1s0-22.3,0-22.3h6.7c4.1,0,7,0,7.5,0Z"/>
</svg>